inDegrees=yes
name=ik_Xsens
DataType=double
version=3
OpenSimVersion=4.4-2022-07-23-0e9fedc
endheader
time	pelvis_tilt	pelvis_list	pelvis_rotation	pelvis_tx	pelvis_ty	pelvis_tz	hip_flexion_r	hip_adduction_r	hip_rotation_r	knee_angle_r	knee_angle_r_beta	ankle_angle_r	subtalar_angle_r	mtp_angle_r	hip_flexion_l	hip_adduction_l	hip_rotation_l	knee_angle_l	knee_angle_l_beta	ankle_angle_l	subtalar_angle_l	mtp_angle_l	lumbar_extension	lumbar_bending	lumbar_rotation	arm_flex_r	arm_add_r	arm_rot_r	elbow_flex_r	pro_sup_r	wrist_flex_r	wrist_dev_r	arm_flex_l	arm_add_l	arm_rot_l	elbow_flex_l	pro_sup_l	wrist_flex_l	wrist_dev_l
0	0	0	0	0	0.93	0	0	0	0	0	0	0	0	0	0	0	0	0	0	0	0	0	0	0	0	0	0	0	0	0	0	0	0	0	0	0	0	0	0
0.01666666666666667	0	0	0	0	0.93	0	0	0	0	0	0	0	0	0	0	0	0	0	0	0	0	0	0	0	0	-0.03041956278018656	-0.03382318162533913	0.04676529120825956	1.533469516683027e-05	-0.0478476243544096	0	0	0.01893238441429513	0.01787109074574758	-0.0248228877394161	-0.1847587445719229	0.07399024083288212	0	0
0.03333333333333333	0	0	0	0	0.93	0	3.445608094195272e-49	0	0	1.819927986982451e-20	0	0	0	0	3.445608094195272e-49	0	0	1.819927986982451e-20	0	0	0	0	0	0	0	-0.05065996812680926	-0.05195442835339884	0.1166691459913655	-0.02084804737766414	-0.1346258358780948	0	0	0.02723722607676619	0.03228456221466724	-0.008441495465794579	-0.3282801039058862	0.1152312199079779	0	0
0.05	0	0	0	0	0.93	0	0	0	0	0	0	0	0	0	0	0	0	0	0	0	0	0	0	0	0	-0.06789533192730553	-0.06687222456160007	0.1816138897387439	-0.05458870008050906	-0.2210851210484663	0	0	0.01650455183406491	0.04077243798777905	0.01476503931163511	-0.4508031982870439	0.1449913790457982	0	0
0.06666666666666667	0	0	0	0	0.93	0	0	0	0	0	0	0	0	0	0	0	0	0	0	0	0	0	0	0	0	-0.08146550226659283	-0.07909473043070737	0.2251576754439176	-0.08720374949438067	-0.2833508652690147	0	0	-0.00487776062066789	0.04453486825014487	0.05522014200577975	-0.5510203367055415	0.1920991809015913	0	0
0.08333333333333333	0	0	0	0	0.93	0	0	0	0	0	0	0	0	0	0	0	0	0	0	0	0	0	0	0	0	-0.1037605645034126	-0.09627809652157265	0.2496718084987889	-0.120858731405723	-0.3192387309929282	0	0	-0.03940948923431901	0.04671397397650244	0.1121581289820788	-0.6236218667294029	0.2388784430492487	0	0
0.1	0	0	0	0	0.93	0	0	0	0	0	-5.241540515187501e-23	0	0	0	0	0	0	0	-5.241540515187501e-23	0	0	0	0	0	0	-0.1224054664912757	-0.1002072687412172	0.2724390465339269	-0.1571315844931958	-0.350573781608599	0	0	-0.07381146802472187	0.03434053569226415	0.1688243894882823	-0.6691585944515304	0.2539928079786782	0	0
0.1166666666666667	0	0	0	0	0.93	0	4.594144125593695e-49	0	0	2.426570649309934e-20	-5.241540515187501e-23	0	0	0	4.594144125593695e-49	0	0	2.426570649309934e-20	-5.241540515187501e-23	0	0	0	0	0	0	-0.1439996965872606	-0.1019503710192004	0.2820954148043341	-0.1682410135120394	-0.3648808196205371	0	0	-0.1290989877129521	0.0435518046576342	0.1837297277617743	-0.6760575344675576	0.290107907164506	0	0
0.1333333333333333	0	0	0	0	0.93	0	0	0	0	0	-5.241540515187501e-23	0	0	0	0	0	0	0	-5.241540515187501e-23	0	0	0	0	0	0	-0.1641951178239698	-0.1045116828728027	0.2998574907607882	-0.2165408414228615	-0.4062327919562727	0	0	-0.201152333974518	0.02851247749703482	0.1829486179037218	-0.6452028472976157	0.3458769493414409	0	0
0.15	0	0	0	0	0.93	0	4.594144125593695e-49	0	0	2.426570649309934e-20	-5.241540515187501e-23	0	0	0	4.594144125593695e-49	0	0	2.426570649309934e-20	-5.241540515187501e-23	0	0	0	0	0	0	-0.1805871404896216	-0.08055328105657659	0.310113186385412	-0.2613525058368873	-0.4060643694541463	0	0	-0.2385844307398143	0.0456376948663706	0.2239802622372419	-0.6614478988869784	0.3571804311566857	0	0
0.1666666666666667	0	0	0	0	0.93	0	4.594144125593695e-49	0	0	2.426570649309934e-20	-5.241540515187501e-23	0	0	0	4.594144125593695e-49	0	0	2.426570649309934e-20	-5.241540515187501e-23	0	0	0	0	0	0	-0.1819301841918776	-0.05604702876344974	0.3420540519200259	-0.3528922084381295	-0.4262030476561056	0	0	-0.2785454079571918	0.05033226747880278	0.2595362985678936	-0.6793503670806847	0.3754176369394138	0	0
0.1833333333333333	0	0	0	0	0.93	0	4.594144125593695e-49	0	0	2.426570649309934e-20	-5.241540515187501e-23	0	0	0	4.594144125593695e-49	0	0	2.426570649309934e-20	-5.241540515187501e-23	0	0	0	0	0	0	-0.202078974123732	-0.02151485853954534	0.3581852984714546	-0.4014448528443886	-0.4456954546714493	0	0	-0.3069225400157032	0.06520046427170847	0.2584803489298846	-0.6945605735401333	0.3787183704463878	0	0
0.2	0	0	0	0	0.93	0	4.594144125593695e-49	0	0	2.426570649309934e-20	0	0	0	0	4.594144125593695e-49	0	0	2.426570649309934e-20	0	0	0	0	0	0	0	-0.2175898335871289	0.02291270443053898	0.3743318156755476	-0.473636163654941	-0.4846354461313688	0	0	-0.3300265144921473	0.08121988732613121	0.244068613688987	-0.7092219157360081	0.3706191729784205	0	0
0.2166666666666667	0	0	0	0	0.93	0	4.594144125593695e-49	0	0	2.426570649309934e-20	0	0	0	0	4.594144125593695e-49	0	0	2.426570649309934e-20	0	0	0	0	0	0	0	-0.2491643649605598	0.06234243490217987	0.3658046373120621	-0.5211449352344768	-0.4863866638614426	0	0	-0.350025527355304	0.09410289027941007	0.2372584915629156	-0.7141612324991609	0.3654118628358223	0	0
0.2333333333333333	0	0	0	0	0.93	0	4.594144125593695e-49	0	0	2.426570649309934e-20	5.241540515187501e-23	0	0	0	4.594144125593695e-49	0	0	2.426570649309934e-20	5.241540515187501e-23	0	0	0	0	0	0	-0.2875606496389472	0.102413222243916	0.3360327020468157	-0.5675265934287465	-0.4711586486398601	0	0	-0.378757267591974	0.1008924890131562	0.2723698344458673	-0.7080469470832383	0.3765137654896002	0	0
0.25	0	0	0	0	0.93	0	0	0	0	0	-3.673419846319648e-40	0	0	0	0	0	0	0	-3.673419846319648e-40	0	0	0	0	0	0	-0.3429765485317354	0.1478434952827137	0.2771803399468477	-0.6159907051145889	-0.3835270132664433	0	0	-0.4282037491895726	0.1025153527361638	0.4219576173227789	-0.670027560277755	0.3868886230195065	0	0
0.2666666666666667	0	0	0	0	0.93	0	0	0	0	0	-2.29588740394978e-40	0	0	0	0	0	0	0	-2.29588740394978e-40	0	0	0	0	0	0	-0.3971471803812043	0.1777134489031219	0.2382621791407191	-0.6280183714224372	-0.2610365091561889	0	0	-0.4931161176596559	0.09647670274066238	0.6175065294621933	-0.6631902441056282	0.4063438627030767	0	0
0.2833333333333333	2.714971608190055e-27	2.573297529811535e-20	1.443192958951077e-27	1.926055977242797e-26	0.93	3.895444453787933e-27	-8.08425904491511e-32	1.442611755494394e-23	0	0	-8.449956627323273e-18	-5.320267563196884e-23	-2.235662947025616e-22	2.937409248824758e-18	-3.182130532615943e-24	9.716844015995674e-32	2.937737131355456e-24	0	-8.468710515312888e-18	-7.347180793582034e-24	-1.677630756846219e-17	-3.526371002697981e-18	-5.649753508586216e-28	2.916293279703864e-25	-7.365448883446405e-25	-0.4614193873062911	0.2079120787253619	0.1946341594875048	-0.621447858950157	-0.1501224396197484	2.759203974843329e-21	-2.818288191775804e-20	-0.5544662963749379	0.103696798665709	0.8082123466098157	-0.6488088626843304	0.2964441927620532	-7.745206586407776e-21	7.436578890708829e-21
0.3	0	0	0	0	0.93	0	0	0	0	0	-2.350988701644575e-38	0	0	0	0	0	0	0	-2.350988701644575e-38	0	0	0	0	0	0	-0.5690514431478819	0.2710024916213232	0.1036598874590236	-0.5578588332286929	-0.04117315563101059	0	0	-0.5980230711621428	0.1147553321486736	0.9132449990176255	-0.6157704333519496	0.2576303006141646	0	0
0.3166666666666667	0	0	0	0	0.93	0	0	0	0	0	-5.877471754111438e-39	0	0	0	0	0	0	0	-5.877471754111438e-39	0	0	0	0	0	0	-0.7771489072486342	0.3612042935022371	-0.3377999648017302	-0.4060061456544327	0.3830692640654895	0	0	-0.6240626195235273	0.125856163061097	0.9590173113409463	-0.6125288668649791	0.2986311360066678	0	0
0.3333333333333333	0	0	0	0	0.93	0	0	0	0	0	0	0	0	0	0	0	0	0	0	0	0	0	0	0	0	-0.7143783354760757	0.473505607226943	-0.2282141352374933	-0.4707216354892604	0.2916365806541491	0	0	-0.653288351602096	0.1211287300029038	0.9651774578445325	-0.5809885130280187	0.3497515704890263	0	0
0.35	0	0	0	0	0.93	0	0	0	0	0	0	0	0	0	0	0	0	0	0	0	0	0	0	0	0	-0.541723115997814	0.608494957057806	0.149864385596657	-0.6355387037920174	-0.06335796274826618	0	0	-0.6824345856767091	0.0931913653711649	0.9637594444602454	-0.4800947444473399	0.4070565619672027	0	0
0.3666666666666666	5.415388187944075e-27	1.186712714942335e-20	-1.112652258098755e-26	3.771601735004275e-20	0.93	0	-6.578876991125049e-27	1.110678781282057e-24	1.528971171284569e-23	0	-6.371654912359763e-18	-2.249477386152002e-21	-1.175423183963619e-21	5.109376362250941e-18	7.695007183932662e-24	9.717054639372281e-20	-4.599942764868663e-19	0	-6.371665245057115e-18	-1.251729023066428e-23	3.881549155547374e-22	-5.454126307211778e-18	1.634963637896104e-18	1.01683342710634e-18	-1.659910818922276e-18	-0.4807914558630048	0.6755558317855863	0.2958443351611701	-0.6883182615221851	-0.1787669976177393	1.31084039519792e-22	-2.337917566458129e-20	-0.7070773064020001	0.07747221368660986	0.9821445922141052	-0.3952538676194353	0.4181829989987192	-1.371836540629929e-21	6.332206235307335e-21
0.3833333333333333	0	0	0	0	0.93	0	0	0	0	0	0	0	0	0	0	0	0	0	0	0	0	0	0	0	0	-0.4536071833000335	0.7439041558737233	0.3344210799224833	-0.728430744152215	-0.2282506243515429	0	0	-0.7216153750199416	0.0384688244903105	1.029030768743728	-0.2335884035417385	0.3206003020399793	0	0
0.4	0	0	0	0	0.93	0	0	0	0	0	0	0	0	0	0	0	0	0	0	0	0	0	0	0	0	-0.4980611165602826	0.7842470068239785	0.2583579715349428	-0.7109839442063616	-0.1889803147476612	0	0	-0.7321126813505288	-0.000106138239893972	1.078702381788028	-0.08873167679743092	0.209682089486045	0	0
0.4166666666666667	0	0	0	0	0.93	0	0	0	0	0	0	0	0	0	0	0	0	0	0	0	0	0	0	0	0	-0.4090310313242511	0.800101949419586	0.2642647442088847	-0.7977020291656737	-0.1660188021418034	0	0	-0.7260129023554919	-0.03413283963621533	1.125819691262608	0.008387333944414117	0.1718392806567837	0	0
0.4333333333333333	0	0	0	0	0.93	0	4.594144125593695e-49	0	0	2.426570649309934e-20	5.241540515187501e-23	0	0	0	4.594144125593695e-49	0	0	2.426570649309934e-20	5.241540515187501e-23	0	0	0	0	0	0	-0.3293808774052233	0.8138378601500542	0.2772392252440294	-0.8920307596202386	-0.1560928928327874	0	0	-0.7234697496912976	-0.0606819288686134	1.206336801825616	0.09552497688091875	0.1031086636153692	0	0
0.45	0	0	0	0	0.93	0	4.594144125593695e-49	0	0	2.426570649309934e-20	0	0	0	0	4.594144125593695e-49	0	0	2.426570649309934e-20	0	0	0	0	0	0	0	-0.281042144578235	0.7820231662144942	0.2642466090066688	-0.9348566095875189	-0.1603906523055739	0	0	-0.7026421821320086	-0.09601490579718158	1.258149072355893	0.1462489020452257	0.0427733434114633	0	0
